<?xml version="1.0" encoding="UTF-8" standalone="no"?>
<svg
   xmlns:dc="http://purl.org/dc/elements/1.1/"
   xmlns:cc="http://creativecommons.org/ns#"
   xmlns:rdf="http://www.w3.org/1999/02/22-rdf-syntax-ns#"
   xmlns:svg="http://www.w3.org/2000/svg"
   xmlns="http://www.w3.org/2000/svg"
   id="svg2"
   xml:space="preserve"
   enable-background="new 0 0 2000 600"
   viewBox="0 0 1395 223"
   height="223"
   width="1395"
   y="0px"
   x="0px"
   version="1.1"><metadata
     id="metadata126"><rdf:RDF><cc:Work
         rdf:about=""><dc:format>image/svg+xml</dc:format><dc:type
           rdf:resource="http://purl.org/dc/dcmitype/StillImage" /><dc:title></dc:title></cc:Work></rdf:RDF></metadata><defs
     id="defs124" /><g
     transform="translate(-302.57344,-188.64566)"
     id="Eng"><g
       id="g5"><g
         id="g7"><path
           style="fill:#00b1eb"
           id="path9"
           d="m 1144.28,250.692 -31.188,-54.605 -76.578,32.633 33.318,56.71 0,83.677 70.196,36.868 70.972,-36.868 0,-88.63 -66.72,-29.785 z m -83.101,-15.382 45.911,-20.092 21.085,37.906 -45.928,20.814 -21.068,-38.628 z m 73.024,148.784 -50.276,-25.343 0,-60.639 50.276,23.487 0,62.495 z m -39.186,-97.246 45.723,-21.213 47.407,20.956 -47.407,21.355 -45.723,-21.098 z m 101.718,72.891 -46.769,25.197 0,-63.338 46.749,-21.095 0.02,59.236 z" /><g
           id="g11"><path
             style="fill:#1c2d50"
             id="path13"
             d="m 326.674,259.666 c -4.99,0 -9.074,-1.474 -12.251,-4.438 -3.186,-2.961 -4.773,-6.594 -4.773,-10.901 0,-4.423 1.588,-8.044 4.773,-10.846 3.177,-2.805 7.261,-4.213 12.251,-4.213 5.051,0 9.148,1.408 12.299,4.213 3.15,2.802 4.721,6.423 4.721,10.846 0,4.496 -1.571,8.172 -4.721,11.039 -3.151,2.87 -7.248,4.3 -12.299,4.3 z m 14.591,110.937 -29.556,0 0,-95.776 29.556,0 0,95.776 z" /><path
             style="fill:#1c2d50"
             id="path15"
             d="m 458.644,370.603 -29.46,0 0,-53.221 c 0,-14.842 -5.3,-22.263 -15.901,-22.263 -5.115,0 -9.324,1.963 -12.626,5.89 -3.308,3.93 -4.958,8.919 -4.958,14.972 l 0,54.622 -29.554,0 0,-95.776 29.554,0 0,15.143 0.374,0 c 7.047,-11.652 17.306,-17.49 30.774,-17.49 21.201,0 31.798,13.165 31.798,39.474 l 0,58.649 z" /><path
             style="fill:#1c2d50"
             id="path17"
             d="m 544.505,251.436 c -3.805,-1.492 -7.452,-2.243 -10.943,-2.243 -9.476,0 -14.215,5.149 -14.215,15.437 l 0,10.197 21.887,0 0,21.791 -21.887,0 0,73.985 -29.463,0 0,-73.985 -16.086,0 0,-21.791 16.086,0 0,-11.884 c 0,-10.908 3.554,-19.701 10.663,-26.374 7.106,-6.67 16.775,-10.004 28.992,-10.004 5.989,0 10.977,0.62 14.967,1.861 l 0,23.01 z" /><path
             style="fill:#1c2d50"
             id="path19"
             d="m 601.09,372.936 c -15.961,0 -28.513,-4.471 -37.646,-13.423 -9.132,-8.944 -13.702,-21.091 -13.702,-36.423 0,-15.84 4.741,-28.236 14.219,-37.185 9.479,-8.948 22.291,-13.426 38.441,-13.426 15.898,0 28.372,4.478 37.413,13.426 9.041,8.949 13.559,20.779 13.559,35.501 0,15.887 -4.661,28.462 -13.979,37.693 -9.32,9.224 -22.091,13.837 -38.305,13.837 z m 0.748,-77.817 c -6.983,0 -12.407,2.398 -16.27,7.204 -3.868,4.797 -5.803,11.601 -5.803,20.384 0,18.402 7.419,27.601 22.265,27.601 14.15,0 21.228,-9.453 21.228,-28.341 0,-17.9 -7.141,-26.848 -21.42,-26.848 z" /><path
             style="fill:#1c2d50"
             id="path21"
             d="m 702.478,359.47 -0.376,0 0,11.133 -29.554,0 0,-141.8 29.554,0 0,60.426 0.376,0 c 7.295,-11.169 17.674,-16.75 31.144,-16.75 12.349,0 21.854,4.249 28.529,12.723 6.673,8.483 10.01,20.082 10.01,34.796 0,15.96 -3.899,28.781 -11.695,38.44 -7.793,9.664 -18.206,14.497 -31.233,14.497 -11.793,10e-4 -20.707,-4.485 -26.755,-13.465 z m -0.842,-40.412 0,9.828 c 0,6.172 1.779,11.285 5.332,15.34 3.555,4.057 8.105,6.081 13.655,6.081 6.734,0 11.953,-2.605 15.665,-7.819 3.709,-5.198 5.564,-12.571 5.564,-22.116 0,-7.921 -1.696,-14.108 -5.097,-18.564 -3.397,-4.457 -8.246,-6.688 -14.544,-6.688 -5.926,0 -10.833,2.214 -14.73,6.637 -3.897,4.43 -5.845,10.196 -5.845,17.301 z" /><path
             style="fill:#1c2d50"
             id="path23"
             d="m 836.975,372.936 c -15.963,0 -28.513,-4.471 -37.647,-13.423 -9.136,-8.944 -13.703,-21.091 -13.703,-36.423 0,-15.84 4.739,-28.236 14.216,-37.185 9.479,-8.948 22.294,-13.426 38.445,-13.426 15.899,0 28.369,4.478 37.41,13.426 9.043,8.949 13.562,20.779 13.562,35.501 0,15.887 -4.661,28.462 -13.983,37.693 -9.321,9.224 -22.088,13.837 -38.3,13.837 z m 0.748,-77.817 c -6.983,0 -12.409,2.398 -16.273,7.204 -3.864,4.797 -5.801,11.601 -5.801,20.384 0,18.402 7.419,27.601 22.263,27.601 14.15,0 21.23,-9.453 21.23,-28.341 0,-17.9 -7.139,-26.848 -21.419,-26.848 z" /><path
             style="fill:#1c2d50"
             id="path25"
             d="m 1000.935,274.827 -31.614,46.391 31.427,49.385 -34.048,0 -13.842,-25.814 c -1.123,-2.062 -2.462,-4.966 -4.021,-8.703 l -0.374,0 c -0.938,2.623 -2.215,5.43 -3.837,8.42 l -13.933,26.098 -33.953,0 32.363,-47.701 -30.401,-48.075 34.234,0 13.655,26.834 c 1.808,3.561 3.085,6.551 3.838,8.985 l 0.375,0 c 0.996,-2.939 2.335,-5.987 4.018,-9.166 l 13.936,-26.654 32.177,0 z" /></g><g
           id="g27"><path
             style="fill:#00b1eb"
             id="path29"
             d="m 1341.478,366.394 c -7.107,4.354 -15.588,6.542 -25.439,6.542 -13.033,0 -23.536,-4.471 -31.52,-13.423 -7.981,-8.944 -11.973,-20.651 -11.973,-35.12 0,-15.212 4.49,-27.673 13.472,-37.363 8.978,-9.695 20.513,-14.551 34.604,-14.551 7.296,0 14.372,1.506 21.231,4.492 l 0,9.732 c -6.859,-4.242 -14.377,-6.361 -22.543,-6.361 -11.223,0 -20.326,4.035 -27.309,12.109 -6.981,8.081 -10.476,18.532 -10.476,31.375 0,12.414 3.198,22.391 9.585,29.938 6.394,7.545 14.829,11.318 25.302,11.318 9.602,0 17.958,-2.555 25.065,-7.668 l 0,8.98 z" /><path
             style="fill:#00b1eb"
             id="path31"
             d="m 1364.487,370.603 0,-141.8 8.605,0 0,141.799 -8.605,0 z" /><path
             style="fill:#00b1eb"
             id="path33"
             d="m 1442.21,372.936 c -13.966,0 -25.019,-4.594 -33.154,-13.796 -8.138,-9.192 -12.207,-21.153 -12.207,-35.872 0,-15.901 4.258,-28.334 12.77,-37.319 8.51,-8.978 19.719,-13.47 33.622,-13.47 13.655,0 24.444,4.463 32.359,13.383 7.923,8.916 11.88,21.257 11.88,37.04 0,14.896 -4.038,26.967 -12.112,36.198 -8.075,9.223 -19.126,13.836 -33.158,13.836 z m 0.656,-92.594 c -11.289,0 -20.281,3.803 -26.985,11.405 -6.7,7.613 -10.054,18.18 -10.054,31.716 0,12.526 3.275,22.598 9.82,30.207 6.546,7.605 15.494,11.412 26.844,11.412 11.537,0 20.422,-3.741 26.658,-11.224 6.232,-7.479 9.35,-17.869 9.35,-31.153 0,-13.652 -3.103,-24.133 -9.301,-31.419 -6.207,-7.3 -14.984,-10.944 -26.332,-10.944 z" /><path
             style="fill:#00b1eb"
             id="path35"
             d="m 1574.465,370.603 0,-17.396 -0.376,0 c -6.67,13.15 -16.963,19.729 -30.864,19.729 -22.636,0 -33.954,-14.246 -33.954,-42.74 l 0,-55.369 8.7,0 0,53.217 c 0,12.97 2.136,22.387 6.408,28.239 4.269,5.868 10.987,8.8 20.157,8.8 8.916,0 16.132,-3.273 21.649,-9.823 5.518,-6.546 8.279,-15.274 8.279,-26.186 l 0,-54.248 8.604,0 0,95.776 -8.603,0 z" /><path
             style="fill:#00b1eb"
             id="path37"
             d="m 1681.745,370.603 0,-17.396 -0.376,0 c -3.117,6.046 -7.729,10.847 -13.84,14.406 -6.111,3.553 -13,5.323 -20.673,5.323 -11.785,0 -21.4,-4.296 -28.855,-12.903 -7.448,-8.607 -11.176,-20.485 -11.176,-35.64 0,-15.459 4.066,-27.982 12.206,-37.547 8.138,-9.576 18.691,-14.366 31.66,-14.366 14.343,0 24.569,5.896 30.678,17.683 l 0.376,0 0,-61.358 8.605,0 0,141.799 -8.605,0 z m 0,-58.273 c 0,-8.919 -2.82,-16.482 -8.467,-22.68 -5.639,-6.209 -13.231,-9.308 -22.773,-9.308 -10.041,0 -18.329,3.847 -24.881,11.551 -6.546,7.692 -9.819,18.282 -9.819,31.752 0,13.216 2.945,23.432 8.84,30.631 5.894,7.203 13.484,10.807 22.774,10.807 10.913,0 19.362,-3.386 25.348,-10.149 5.986,-6.768 8.979,-15.01 8.979,-24.738 l 0,-17.866 z" /></g></g></g></g><g
     transform="translate(0,-377)"
     style="display:none"
     display="none"
     id="Ru"><rect
       style="display:inline;fill:#1c2d50"
       x="0"
       id="rect40"
       height="600.46399"
       width="2000"
       display="inline"
       y="-0.46399999" /><g
       style="display:inline"
       id="g42"
       display="inline"><g
         id="g44"><path
           style="fill:#00b1eb"
           id="path46"
           d="m 1144.28,200.689 -31.188,-54.605 -76.578,32.633 33.318,56.71 0,83.675 70.196,36.868 70.972,-36.867 0,-88.628 -66.72,-29.786 z m -83.101,-15.382 45.911,-20.092 21.085,37.906 -45.928,20.814 -21.068,-38.628 z m 73.024,148.782 -50.276,-25.343 0,-60.637 50.276,23.485 0,62.495 z m -39.186,-97.243 45.723,-21.213 47.407,20.956 -47.407,21.354 -45.723,-21.097 z m 101.718,72.888 -46.769,25.197 0,-63.337 46.749,-21.094 0.02,59.234 z" /><g
           id="g48"><path
             style="fill:#ffffff"
             id="path50"
             d="m 326.674,209.663 c -4.99,0 -9.074,-1.474 -12.251,-4.438 -3.186,-2.961 -4.773,-6.594 -4.773,-10.901 0,-4.423 1.588,-8.044 4.773,-10.846 3.177,-2.805 7.261,-4.213 12.251,-4.213 5.051,0 9.148,1.408 12.299,4.213 3.15,2.802 4.721,6.423 4.721,10.846 0,4.496 -1.571,8.172 -4.721,11.039 -3.151,2.87 -7.248,4.3 -12.299,4.3 z m 14.591,110.935 -29.556,0 0,-95.773 29.556,0 0,95.773 z" /><path
             style="fill:#ffffff"
             id="path52"
             d="m 458.644,320.598 -29.46,0 0,-53.219 c 0,-14.842 -5.3,-22.263 -15.901,-22.263 -5.115,0 -9.324,1.963 -12.626,5.89 -3.308,3.93 -4.958,8.919 -4.958,14.972 l 0,54.62 -29.554,0 0,-95.773 29.554,0 0,15.143 0.374,0 c 7.047,-11.652 17.306,-17.49 30.774,-17.49 21.201,0 31.798,13.165 31.798,39.474 l 0,58.646 z" /><path
             style="fill:#ffffff"
             id="path54"
             d="m 544.505,201.434 c -3.805,-1.492 -7.452,-2.243 -10.943,-2.243 -9.476,0 -14.215,5.149 -14.215,15.437 l 0,10.197 21.887,0 0,21.791 -21.887,0 0,73.982 -29.463,0 0,-73.982 -16.086,0 0,-21.791 16.086,0 0,-11.885 c 0,-10.908 3.554,-19.701 10.663,-26.374 7.106,-6.67 16.775,-10.004 28.992,-10.004 5.989,0 10.977,0.62 14.967,1.861 l 0,23.011 z" /><path
             style="fill:#ffffff"
             id="path56"
             d="m 601.09,322.931 c -15.961,0 -28.513,-4.471 -37.646,-13.423 -9.132,-8.944 -13.702,-21.09 -13.702,-36.422 0,-15.839 4.741,-28.234 14.219,-37.184 9.479,-8.948 22.291,-13.426 38.441,-13.426 15.898,0 28.372,4.478 37.413,13.426 9.041,8.949 13.559,20.778 13.559,35.5 0,15.887 -4.661,28.461 -13.979,37.692 -9.32,9.224 -22.091,13.837 -38.305,13.837 z m 0.748,-77.815 c -6.983,0 -12.407,2.398 -16.27,7.203 -3.868,4.797 -5.803,11.601 -5.803,20.383 0,18.401 7.419,27.6 22.265,27.6 14.15,0 21.228,-9.452 21.228,-28.34 0,-17.898 -7.141,-26.846 -21.42,-26.846 z" /><path
             style="fill:#ffffff"
             id="path58"
             d="m 702.478,309.465 -0.376,0 0,11.133 -29.554,0 0,-141.797 29.554,0 0,60.426 0.376,0 c 7.295,-11.169 17.674,-16.75 31.144,-16.75 12.349,0 21.854,4.249 28.529,12.723 6.673,8.483 10.01,20.081 10.01,34.796 0,15.959 -3.899,28.779 -11.695,38.438 -7.793,9.664 -18.206,14.497 -31.233,14.497 -11.793,0 -20.707,-4.486 -26.755,-13.466 z m -0.842,-40.41 0,9.827 c 0,6.172 1.779,11.285 5.332,15.339 3.555,4.057 8.105,6.081 13.655,6.081 6.734,0 11.953,-2.605 15.665,-7.819 3.709,-5.197 5.564,-12.57 5.564,-22.114 0,-7.921 -1.696,-14.108 -5.097,-18.564 -3.397,-4.456 -8.246,-6.688 -14.544,-6.688 -5.926,0 -10.833,2.214 -14.73,6.637 -3.897,4.43 -5.845,10.196 -5.845,17.301 z" /><path
             style="fill:#ffffff"
             id="path60"
             d="m 836.975,322.931 c -15.963,0 -28.513,-4.471 -37.647,-13.423 -9.136,-8.944 -13.703,-21.09 -13.703,-36.422 0,-15.839 4.739,-28.234 14.216,-37.184 9.479,-8.948 22.294,-13.426 38.445,-13.426 15.899,0 28.369,4.478 37.41,13.426 9.043,8.949 13.562,20.778 13.562,35.5 0,15.887 -4.661,28.461 -13.983,37.692 -9.321,9.224 -22.088,13.837 -38.3,13.837 z m 0.748,-77.815 c -6.983,0 -12.409,2.398 -16.273,7.203 -3.864,4.797 -5.801,11.601 -5.801,20.383 0,18.401 7.419,27.6 22.263,27.6 14.15,0 21.23,-9.452 21.23,-28.34 0,-17.898 -7.139,-26.846 -21.419,-26.846 z" /><path
             style="fill:#ffffff"
             id="path62"
             d="m 1000.935,224.824 -31.614,46.39 31.427,49.384 -34.048,0 -13.842,-25.814 c -1.123,-2.062 -2.462,-4.965 -4.021,-8.702 l -0.374,0 c -0.938,2.623 -2.215,5.429 -3.837,8.419 l -13.933,26.098 -33.953,0 32.363,-47.7 -30.401,-48.073 34.234,0 13.655,26.834 c 1.808,3.561 3.085,6.551 3.838,8.985 l 0.375,0 c 0.996,-2.939 2.335,-5.987 4.018,-9.166 l 13.936,-26.653 32.177,0 z" /></g><g
           id="g64"><path
             style="fill:#00b1eb"
             id="path66"
             d="m 1341.478,316.389 c -7.107,4.354 -15.588,6.542 -25.439,6.542 -13.033,0 -23.536,-4.471 -31.52,-13.423 -7.981,-8.944 -11.973,-20.65 -11.973,-35.119 0,-15.211 4.49,-27.672 13.472,-37.361 8.978,-9.695 20.513,-14.551 34.604,-14.551 7.296,0 14.372,1.506 21.231,4.492 l 0,9.732 c -6.859,-4.242 -14.377,-6.361 -22.543,-6.361 -11.223,0 -20.326,4.035 -27.309,12.109 -6.981,8.081 -10.476,18.531 -10.476,31.374 0,12.414 3.198,22.39 9.585,29.937 6.394,7.545 14.829,11.318 25.302,11.318 9.602,0 17.958,-2.555 25.065,-7.668 l 0,8.979 z" /><path
             style="fill:#00b1eb"
             id="path68"
             d="m 1364.487,320.598 0,-141.797 8.605,0 0,141.797 -8.605,0 z" /><path
             style="fill:#00b1eb"
             id="path70"
             d="m 1442.21,322.931 c -13.966,0 -25.019,-4.594 -33.154,-13.796 -8.138,-9.192 -12.207,-21.152 -12.207,-35.871 0,-15.9 4.258,-28.333 12.77,-37.317 8.51,-8.978 19.719,-13.47 33.622,-13.47 13.655,0 24.444,4.463 32.359,13.383 7.923,8.916 11.88,21.257 11.88,37.038 0,14.896 -4.038,26.966 -12.112,36.197 -8.075,9.223 -19.126,13.836 -33.158,13.836 z m 0.656,-92.591 c -11.289,0 -20.281,3.803 -26.985,11.405 -6.7,7.613 -10.054,18.18 -10.054,31.715 0,12.526 3.275,22.597 9.82,30.206 6.546,7.605 15.494,11.412 26.844,11.412 11.537,0 20.422,-3.741 26.658,-11.224 6.232,-7.479 9.35,-17.868 9.35,-31.152 0,-13.651 -3.103,-24.132 -9.301,-31.418 -6.207,-7.301 -14.984,-10.944 -26.332,-10.944 z" /><path
             style="fill:#00b1eb"
             id="path72"
             d="m 1574.465,320.598 0,-17.396 -0.376,0 c -6.67,13.15 -16.963,19.729 -30.864,19.729 -22.636,0 -33.954,-14.246 -33.954,-42.739 l 0,-55.367 8.7,0 0,53.216 c 0,12.969 2.136,22.386 6.408,28.238 4.269,5.868 10.987,8.8 20.157,8.8 8.916,0 16.132,-3.273 21.649,-9.823 5.518,-6.546 8.279,-15.273 8.279,-26.185 l 0,-54.246 8.604,0 0,95.773 -8.603,0 z" /><path
             style="fill:#00b1eb"
             id="path74"
             d="m 1681.745,320.598 0,-17.396 -0.376,0 c -3.117,6.046 -7.729,10.847 -13.84,14.406 -6.111,3.553 -13,5.323 -20.673,5.323 -11.785,0 -21.4,-4.296 -28.855,-12.903 -7.448,-8.607 -11.176,-20.484 -11.176,-35.639 0,-15.458 4.066,-27.98 12.206,-37.546 8.138,-9.576 18.691,-14.366 31.66,-14.366 14.343,0 24.569,5.896 30.678,17.683 l 0.376,0 0,-61.358 8.605,0 0,141.797 -8.605,0 z m 0,-58.271 c 0,-8.919 -2.82,-16.481 -8.467,-22.68 -5.639,-6.209 -13.231,-9.308 -22.773,-9.308 -10.041,0 -18.329,3.847 -24.881,11.551 -6.546,7.692 -9.819,18.281 -9.819,31.751 0,13.216 2.945,23.431 8.84,30.63 5.894,7.203 13.484,10.807 22.774,10.807 10.913,0 19.362,-3.386 25.348,-10.149 5.986,-6.768 8.979,-15.009 8.979,-24.737 l 0,-17.865 z" /></g></g></g><g
       style="display:inline"
       id="g76"
       display="inline"><path
         style="fill:#ffffff"
         id="path78"
         d="m 345.521,452.78 -12.242,-20.329 c -0.272,-0.469 -0.557,-0.982 -0.854,-1.539 -0.296,-0.557 -0.544,-1.095 -0.742,-1.613 l -0.186,0 c -0.248,0.494 -0.501,1.001 -0.76,1.521 -0.26,0.52 -0.563,1.063 -0.909,1.632 l -12.539,20.329 -6.046,0 17.324,-26.783 -16.1,-26.413 6.01,0 11.388,19.364 c 0.346,0.569 0.674,1.156 0.983,1.763 0.309,0.606 0.624,1.23 0.946,1.873 l 0.148,0 c 0.346,-0.717 0.686,-1.385 1.02,-2.003 0.334,-0.618 0.662,-1.188 0.983,-1.707 l 11.574,-19.29 5.713,0 -16.322,26.339 16.619,26.857 -6.008,0 z" /><path
         style="fill:#ffffff"
         id="path80"
         d="m 375.087,453.671 c -2.819,0 -5.348,-0.471 -7.586,-1.41 -2.239,-0.939 -4.149,-2.269 -5.731,-3.987 -1.583,-1.719 -2.795,-3.777 -3.635,-6.177 -0.841,-2.398 -1.262,-5.058 -1.262,-7.976 0,-3.166 0.445,-5.997 1.336,-8.495 0.89,-2.498 2.157,-4.618 3.802,-6.362 1.644,-1.743 3.629,-3.072 5.954,-3.987 2.325,-0.915 4.921,-1.373 7.791,-1.373 2.745,0 5.218,0.451 7.419,1.354 2.201,0.902 4.068,2.207 5.602,3.913 1.533,1.707 2.708,3.784 3.524,6.232 0.816,2.448 1.224,5.23 1.224,8.347 0,2.968 -0.427,5.67 -1.28,8.105 -0.854,2.437 -2.072,4.532 -3.654,6.288 -1.582,1.756 -3.512,3.116 -5.787,4.08 -2.277,0.965 -4.848,1.448 -7.717,1.448 z m 0.371,-35.65 c -2.078,0 -3.957,0.358 -5.639,1.075 -1.682,0.718 -3.123,1.763 -4.322,3.135 -1.2,1.373 -2.121,3.055 -2.764,5.045 -0.643,1.991 -0.964,4.248 -0.964,6.771 0,2.374 0.321,4.514 0.964,6.417 0.643,1.905 1.552,3.537 2.727,4.897 1.174,1.36 2.603,2.405 4.285,3.135 1.682,0.729 3.562,1.094 5.639,1.094 2.126,0 4.006,-0.353 5.639,-1.057 1.632,-0.705 3.017,-1.731 4.155,-3.079 1.137,-1.348 1.997,-2.999 2.578,-4.953 0.581,-1.953 0.872,-4.179 0.872,-6.677 0,-5.119 -1.138,-9.033 -3.413,-11.741 -2.277,-2.708 -5.528,-4.062 -9.757,-4.062 z" /><path
         style="fill:#ffffff"
         id="path82"
         d="m 428.357,451.074 c -2.819,1.706 -6.232,2.584 -10.238,2.634 -2.721,0.024 -5.169,-0.445 -7.345,-1.41 -2.177,-0.964 -4.031,-2.306 -5.564,-4.024 -1.534,-1.719 -2.708,-3.747 -3.524,-6.084 -0.816,-2.337 -1.225,-4.878 -1.225,-7.623 0,-2.844 0.433,-5.521 1.299,-8.031 0.865,-2.51 2.126,-4.699 3.784,-6.566 1.656,-1.867 3.685,-3.345 6.083,-4.433 2.398,-1.089 5.144,-1.633 8.235,-1.633 3.141,0 6.01,0.606 8.606,1.817 l 0,5.046 c -2.77,-1.83 -5.763,-2.745 -8.977,-2.745 -2.251,0 -4.254,0.426 -6.01,1.279 -1.756,0.854 -3.234,2.017 -4.433,3.487 -1.2,1.472 -2.114,3.19 -2.745,5.156 -0.63,1.966 -0.946,4.05 -0.946,6.251 0,2.028 0.266,3.969 0.797,5.824 0.532,1.854 1.348,3.493 2.449,4.915 1.1,1.422 2.491,2.554 4.173,3.395 1.681,0.841 3.66,1.261 5.935,1.261 3.562,0 6.776,-1.062 9.645,-3.19 l 0,4.674 z" /><path
         style="fill:#ffffff"
         id="path84"
         d="m 448.575,418.948 0,33.832 -4.748,0 0,-33.832 -11.426,0 0,-4.154 27.562,0 0,4.154 -11.388,0 z" /><path
         style="fill:#ffffff"
         id="path86"
         d="m 493.387,452.78 0,-31.013 c -0.173,0.272 -0.346,0.557 -0.519,0.854 -0.173,0.297 -0.347,0.569 -0.52,0.816 l -20.922,29.343 -4.34,0 0,-37.986 4.488,0 0,30.716 c 0.124,-0.347 0.303,-0.736 0.538,-1.169 0.235,-0.433 0.525,-0.896 0.872,-1.391 l 20.329,-28.156 4.526,0 0,37.986 -4.452,0 z" /><path
         style="fill:#ffffff"
         id="path88"
         d="m 535.714,452.78 0,-17.695 -20.885,0 0,17.695 -4.748,0 0,-37.986 4.748,0 0,16.174 20.885,0 0,-16.174 4.748,0 0,37.986 -4.748,0 z" /><path
         style="fill:#ffffff"
         id="path90"
         d="m 557.452,418.948 0,33.832 -4.748,0 0,-37.986 19.809,0 0,4.154 -15.061,0 z" /><path
         style="fill:#ffffff"
         id="path92"
         d="m 626.562,452.78 0,-17.695 -20.885,0 0,17.695 -4.748,0 0,-37.986 4.748,0 0,16.174 20.885,0 0,-16.174 4.748,0 0,37.986 -4.748,0 z" /><path
         style="fill:#ffffff"
         id="path94"
         d="m 659.096,453.671 c -2.819,0 -5.348,-0.471 -7.586,-1.41 -2.239,-0.939 -4.149,-2.269 -5.731,-3.987 -1.583,-1.719 -2.795,-3.777 -3.635,-6.177 -0.841,-2.398 -1.262,-5.058 -1.262,-7.976 0,-3.166 0.445,-5.997 1.336,-8.495 0.89,-2.498 2.157,-4.618 3.802,-6.362 1.644,-1.743 3.629,-3.072 5.954,-3.987 2.325,-0.915 4.921,-1.373 7.791,-1.373 2.745,0 5.218,0.451 7.419,1.354 2.201,0.902 4.068,2.207 5.602,3.913 1.533,1.707 2.708,3.784 3.524,6.232 0.816,2.448 1.224,5.23 1.224,8.347 0,2.968 -0.427,5.67 -1.28,8.105 -0.854,2.437 -2.072,4.532 -3.654,6.288 -1.582,1.756 -3.512,3.116 -5.787,4.08 -2.277,0.965 -4.849,1.448 -7.717,1.448 z m 0.371,-35.65 c -2.078,0 -3.957,0.358 -5.639,1.075 -1.682,0.718 -3.123,1.763 -4.322,3.135 -1.2,1.373 -2.121,3.055 -2.764,5.045 -0.643,1.991 -0.964,4.248 -0.964,6.771 0,2.374 0.321,4.514 0.964,6.417 0.643,1.905 1.552,3.537 2.727,4.897 1.174,1.36 2.603,2.405 4.285,3.135 1.682,0.729 3.562,1.094 5.639,1.094 2.126,0 4.006,-0.353 5.639,-1.057 1.632,-0.705 3.017,-1.731 4.155,-3.079 1.137,-1.348 1.997,-2.999 2.578,-4.953 0.581,-1.953 0.872,-4.179 0.872,-6.677 0,-5.119 -1.138,-9.033 -3.413,-11.741 -2.277,-2.708 -5.528,-4.062 -9.757,-4.062 z" /><path
         style="fill:#ffffff"
         id="path96"
         d="m 715.593,441.874 c 0,1.558 -0.297,2.999 -0.891,4.321 -0.593,1.323 -1.422,2.474 -2.485,3.45 -1.063,0.978 -2.325,1.744 -3.784,2.3 -1.459,0.557 -3.055,0.835 -4.785,0.835 l -16.545,0 0,-37.986 15.469,0 c 1.904,0 3.574,0.229 5.008,0.687 1.434,0.457 2.634,1.094 3.598,1.91 0.964,0.816 1.694,1.787 2.188,2.912 0.494,1.125 0.742,2.355 0.742,3.69 0,2.399 -0.619,4.384 -1.855,5.954 -1.237,1.571 -3.018,2.604 -5.342,3.098 2.894,0.347 5.063,1.293 6.51,2.838 1.449,1.546 2.172,3.543 2.172,5.991 z m -6.306,-17.176 c 0,-0.84 -0.136,-1.613 -0.408,-2.318 -0.272,-0.705 -0.699,-1.311 -1.28,-1.817 -0.582,-0.507 -1.33,-0.902 -2.245,-1.188 -0.915,-0.284 -2.016,-0.427 -3.301,-0.427 l -10.202,0 0,12.242 9.385,0 c 1.459,0 2.695,-0.161 3.71,-0.482 1.014,-0.321 1.842,-0.772 2.485,-1.354 0.643,-0.581 1.113,-1.268 1.41,-2.06 0.298,-0.79 0.446,-1.655 0.446,-2.596 z m 1.484,17.213 c 0,-0.989 -0.167,-1.886 -0.5,-2.689 -0.334,-0.804 -0.866,-1.496 -1.595,-2.077 -0.73,-0.581 -1.664,-1.026 -2.801,-1.336 -1.138,-0.309 -2.51,-0.464 -4.118,-0.464 l -9.905,0 0,13.281 10.943,0 c 2.671,0 4.668,-0.594 5.991,-1.781 1.323,-1.187 1.985,-2.831 1.985,-4.934 z" /><path
         style="fill:#ffffff"
         id="path98"
         d="m 740.967,453.671 c -2.819,0 -5.348,-0.471 -7.586,-1.41 -2.239,-0.939 -4.149,-2.269 -5.731,-3.987 -1.583,-1.719 -2.795,-3.777 -3.635,-6.177 -0.841,-2.398 -1.262,-5.058 -1.262,-7.976 0,-3.166 0.445,-5.997 1.336,-8.495 0.89,-2.498 2.157,-4.618 3.802,-6.362 1.644,-1.743 3.629,-3.072 5.954,-3.987 2.325,-0.915 4.921,-1.373 7.791,-1.373 2.745,0 5.218,0.451 7.419,1.354 2.201,0.902 4.068,2.207 5.602,3.913 1.533,1.707 2.708,3.784 3.524,6.232 0.816,2.448 1.224,5.23 1.224,8.347 0,2.968 -0.427,5.67 -1.28,8.105 -0.854,2.437 -2.072,4.532 -3.654,6.288 -1.582,1.756 -3.512,3.116 -5.787,4.08 -2.277,0.965 -4.849,1.448 -7.717,1.448 z m 0.371,-35.65 c -2.078,0 -3.957,0.358 -5.639,1.075 -1.682,0.718 -3.123,1.763 -4.322,3.135 -1.2,1.373 -2.121,3.055 -2.764,5.045 -0.643,1.991 -0.964,4.248 -0.964,6.771 0,2.374 0.321,4.514 0.964,6.417 0.643,1.905 1.552,3.537 2.727,4.897 1.174,1.36 2.603,2.405 4.285,3.135 1.682,0.729 3.562,1.094 5.639,1.094 2.126,0 4.006,-0.353 5.639,-1.057 1.632,-0.705 3.017,-1.731 4.155,-3.079 1.137,-1.348 1.997,-2.999 2.578,-4.953 0.581,-1.953 0.872,-4.179 0.872,-6.677 0,-5.119 -1.138,-9.033 -3.413,-11.741 -2.277,-2.708 -5.528,-4.062 -9.757,-4.062 z" /><path
         style="fill:#ffffff"
         id="path100"
         d="m 773.723,418.948 0,33.832 -4.748,0 0,-37.986 19.809,0 0,4.154 -15.061,0 z" /><path
         style="fill:#ffffff"
         id="path102"
         d="m 811.932,453.671 c -2.819,0 -5.348,-0.471 -7.586,-1.41 -2.239,-0.939 -4.149,-2.269 -5.731,-3.987 -1.583,-1.719 -2.795,-3.777 -3.635,-6.177 -0.841,-2.398 -1.262,-5.058 -1.262,-7.976 0,-3.166 0.445,-5.997 1.336,-8.495 0.89,-2.498 2.157,-4.618 3.802,-6.362 1.644,-1.743 3.629,-3.072 5.954,-3.987 2.325,-0.915 4.921,-1.373 7.791,-1.373 2.745,0 5.218,0.451 7.419,1.354 2.201,0.902 4.068,2.207 5.602,3.913 1.533,1.707 2.708,3.784 3.524,6.232 0.816,2.448 1.224,5.23 1.224,8.347 0,2.968 -0.427,5.67 -1.28,8.105 -0.854,2.437 -2.072,4.532 -3.654,6.288 -1.582,1.756 -3.512,3.116 -5.787,4.08 -2.276,0.965 -4.848,1.448 -7.717,1.448 z m 0.371,-35.65 c -2.078,0 -3.957,0.358 -5.639,1.075 -1.682,0.718 -3.123,1.763 -4.322,3.135 -1.2,1.373 -2.121,3.055 -2.764,5.045 -0.643,1.991 -0.964,4.248 -0.964,6.771 0,2.374 0.321,4.514 0.964,6.417 0.643,1.905 1.552,3.537 2.727,4.897 1.174,1.36 2.603,2.405 4.285,3.135 1.682,0.729 3.562,1.094 5.639,1.094 2.126,0 4.006,-0.353 5.639,-1.057 1.632,-0.705 3.017,-1.731 4.155,-3.079 1.137,-1.348 1.997,-2.999 2.578,-4.953 0.581,-1.953 0.872,-4.179 0.872,-6.677 0,-5.119 -1.138,-9.033 -3.413,-11.741 -2.276,-2.708 -5.528,-4.062 -9.757,-4.062 z" /><path
         style="fill:#ffffff"
         id="path104"
         d="m 886.384,452.78 0,-33.832 -20.885,0 0,33.832 -4.748,0 0,-37.986 30.381,0 0,37.986 -4.748,0 z" /><path
         style="fill:#ffffff"
         id="path106"
         d="m 918.917,453.671 c -2.819,0 -5.348,-0.471 -7.586,-1.41 -2.239,-0.939 -4.149,-2.269 -5.731,-3.987 -1.583,-1.719 -2.795,-3.777 -3.635,-6.177 -0.841,-2.398 -1.262,-5.058 -1.262,-7.976 0,-3.166 0.445,-5.997 1.336,-8.495 0.89,-2.498 2.157,-4.618 3.802,-6.362 1.644,-1.743 3.629,-3.072 5.954,-3.987 2.325,-0.915 4.921,-1.373 7.791,-1.373 2.745,0 5.218,0.451 7.419,1.354 2.201,0.902 4.068,2.207 5.602,3.913 1.533,1.707 2.708,3.784 3.524,6.232 0.816,2.448 1.224,5.23 1.224,8.347 0,2.968 -0.427,5.67 -1.28,8.105 -0.854,2.437 -2.072,4.532 -3.654,6.288 -1.582,1.756 -3.512,3.116 -5.787,4.08 -2.276,0.965 -4.848,1.448 -7.717,1.448 z m 0.372,-35.65 c -2.078,0 -3.957,0.358 -5.639,1.075 -1.682,0.718 -3.123,1.763 -4.322,3.135 -1.2,1.373 -2.121,3.055 -2.764,5.045 -0.643,1.991 -0.964,4.248 -0.964,6.771 0,2.374 0.321,4.514 0.964,6.417 0.643,1.905 1.552,3.537 2.727,4.897 1.174,1.36 2.603,2.405 4.285,3.135 1.682,0.729 3.562,1.094 5.639,1.094 2.126,0 4.006,-0.353 5.639,-1.057 1.632,-0.705 3.017,-1.731 4.155,-3.079 1.137,-1.348 1.997,-2.999 2.578,-4.953 0.581,-1.953 0.872,-4.179 0.872,-6.677 0,-5.119 -1.138,-9.033 -3.413,-11.741 -2.277,-2.708 -5.528,-4.062 -9.757,-4.062 z" /><path
         style="fill:#ffffff"
         id="path108"
         d="m 969.108,452.78 -17.287,-18.437 -0.148,0 0,18.437 -4.748,0 0,-37.986 4.748,0 0,17.769 0.148,0 16.768,-17.769 6.195,0 -17.992,18.437 18.994,19.55 -6.678,0 z" /><path
         style="fill:#ffffff"
         id="path110"
         d="m 997.858,453.671 c -2.819,0 -5.348,-0.471 -7.586,-1.41 -2.239,-0.939 -4.149,-2.269 -5.731,-3.987 -1.583,-1.719 -2.795,-3.777 -3.635,-6.177 -0.841,-2.398 -1.262,-5.058 -1.262,-7.976 0,-3.166 0.445,-5.997 1.336,-8.495 0.89,-2.498 2.157,-4.618 3.802,-6.362 1.644,-1.743 3.629,-3.072 5.954,-3.987 2.325,-0.915 4.921,-1.373 7.791,-1.373 2.746,0 5.218,0.451 7.419,1.354 2.201,0.902 4.068,2.207 5.602,3.913 1.533,1.707 2.707,3.784 3.523,6.232 0.816,2.448 1.225,5.23 1.225,8.347 0,2.968 -0.426,5.67 -1.279,8.105 -0.854,2.437 -2.072,4.532 -3.654,6.288 -1.584,1.756 -3.512,3.116 -5.787,4.08 -2.277,0.965 -4.849,1.448 -7.718,1.448 z m 0.371,-35.65 c -2.078,0 -3.957,0.358 -5.639,1.075 -1.682,0.718 -3.123,1.763 -4.322,3.135 -1.2,1.373 -2.121,3.055 -2.764,5.045 -0.643,1.991 -0.964,4.248 -0.964,6.771 0,2.374 0.321,4.514 0.964,6.417 0.643,1.905 1.552,3.537 2.727,4.897 1.174,1.36 2.603,2.405 4.285,3.135 1.682,0.729 3.562,1.094 5.639,1.094 2.126,0 4.007,-0.353 5.638,-1.057 1.633,-0.705 3.018,-1.731 4.154,-3.079 1.139,-1.348 1.998,-2.999 2.58,-4.953 0.58,-1.953 0.871,-4.179 0.871,-6.677 0,-5.119 -1.139,-9.033 -3.414,-11.741 -2.275,-2.708 -5.527,-4.062 -9.755,-4.062 z" /><path
         style="fill:#ffffff"
         id="path112"
         d="m 1047.938,452.78 0,-33.832 -9.979,0 c -0.444,5.887 -1.051,10.987 -1.817,15.303 -0.766,4.316 -1.737,7.883 -2.912,10.702 -1.175,2.819 -2.572,4.915 -4.191,6.288 -1.62,1.372 -3.531,2.059 -5.731,2.059 -0.495,0 -0.978,-0.037 -1.447,-0.111 -0.469,-0.074 -0.89,-0.174 -1.261,-0.297 l 0,-4.118 c 0.321,0.148 0.71,0.267 1.168,0.353 0.458,0.087 0.884,0.13 1.28,0.13 1.508,0 2.85,-0.735 4.024,-2.207 1.175,-1.471 2.201,-3.654 3.079,-6.548 0.878,-2.893 1.626,-6.491 2.244,-10.795 0.618,-4.303 1.125,-9.273 1.521,-14.912 l 18.733,0 0,37.986 -4.711,0 z" /><path
         style="fill:#ffffff"
         id="path114"
         d="m 1067.154,434.641 c 0.024,2.324 0.334,4.414 0.928,6.269 0.593,1.855 1.446,3.426 2.56,4.712 1.112,1.286 2.467,2.269 4.062,2.949 1.596,0.68 3.395,1.02 5.397,1.02 4.278,0 8.322,-1.496 12.131,-4.488 l 0,4.674 c -3.636,2.597 -8.038,3.896 -13.206,3.896 -2.548,0 -4.86,-0.445 -6.938,-1.336 -2.078,-0.891 -3.846,-2.183 -5.305,-3.876 -1.459,-1.694 -2.585,-3.778 -3.376,-6.251 -0.791,-2.473 -1.187,-5.292 -1.187,-8.458 0,-2.844 0.433,-5.478 1.298,-7.901 0.865,-2.423 2.064,-4.52 3.599,-6.288 1.533,-1.768 3.351,-3.153 5.453,-4.154 2.102,-1.002 4.401,-1.503 6.899,-1.503 2.449,0 4.612,0.427 6.492,1.28 1.879,0.853 3.456,2.071 4.729,3.653 1.273,1.583 2.245,3.513 2.912,5.787 0.668,2.275 1.002,4.822 1.002,7.642 l 0,2.375 -27.45,0 z m 22.555,-4.156 c -0.074,-3.956 -1.015,-7.023 -2.819,-9.2 -1.806,-2.176 -4.316,-3.264 -7.53,-3.264 -1.608,0 -3.098,0.284 -4.471,0.853 -1.372,0.569 -2.578,1.392 -3.617,2.467 -1.038,1.076 -1.897,2.388 -2.578,3.933 -0.68,1.546 -1.156,3.283 -1.428,5.212 l 22.443,0 z" /><path
         style="fill:#ffffff"
         id="path116"
         d="m 1129.549,452.78 0,-17.695 -20.885,0 0,17.695 -4.748,0 0,-37.986 4.748,0 0,16.174 20.885,0 0,-16.174 4.749,0 0,37.986 -4.749,0 z" /><path
         style="fill:#ffffff"
         id="path118"
         d="m 1172.841,452.78 0,-31.013 c -0.173,0.272 -0.347,0.557 -0.52,0.854 -0.173,0.297 -0.347,0.569 -0.519,0.816 l -20.923,29.343 -4.34,0 0,-37.986 4.488,0 0,30.716 c 0.124,-0.347 0.303,-0.736 0.538,-1.169 0.234,-0.433 0.525,-0.896 0.872,-1.391 l 20.328,-28.156 4.526,0 0,37.986 -4.45,0 z" /><path
         style="fill:#ffffff"
         id="path120"
         d="m 1209.899,452.78 0,-16.137 -5.676,0 c -0.643,0 -1.298,0.111 -1.966,0.334 -0.668,0.223 -1.323,0.581 -1.966,1.075 -0.644,0.495 -1.274,1.145 -1.892,1.948 -0.619,0.804 -1.2,1.799 -1.744,2.986 l -4.6,9.793 -5.602,0 5.564,-11.129 c 0.742,-1.483 1.595,-2.738 2.56,-3.766 0.965,-1.025 2.09,-1.811 3.376,-2.355 -3.018,-0.371 -5.293,-1.446 -6.826,-3.228 -1.533,-1.78 -2.3,-4.03 -2.3,-6.751 0,-1.484 0.266,-2.875 0.798,-4.174 0.531,-1.298 1.348,-2.436 2.448,-3.412 1.1,-0.977 2.485,-1.75 4.154,-2.318 1.67,-0.569 3.629,-0.854 5.88,-0.854 l 12.613,0 0,37.986 -4.821,0 z m 0,-33.906 -7.679,0 c -2.795,0 -4.891,0.575 -6.288,1.726 -1.397,1.149 -2.096,2.813 -2.096,4.989 0,2.424 0.724,4.191 2.17,5.305 1.447,1.113 3.444,1.669 5.991,1.669 l 7.901,0 0,-13.689 z" /></g></g></svg>